# xmcd
#
# Track frame offsets: 
#        150
#        23375
#        41568
#        63963
#        86177
#        110027
#        131816
#        153565
#        170916
#        190120
#        206036
#        222171
#        235295
#
# Disc length: 3467 seconds
#
# Revision: 0
# Processed by: cddbd v1.5.2PL0 Copyright (c) Steve Scherf et al.
# Submitted via: ExactAudioCopyFreeDBPlugin 1.0
#
DISCID=bc0d890d
DTITLE=Smoking Time Jazz Club - Oh Sister Ain't That Hot!
DYEAR=2013
DGENRE=Other
TTITLE0=Messin' Around
TTITLE1=Sidewalk Blues
TTITLE2=Froggy Bottom Blues
TTITLE3=Singing The Blues
TTITLE4=Original Jelly Roll Blues
TTITLE5=Moanin' Low
TTITLE6=Black Bottom Stomp
TTITLE7=Riffin' The Scotch
TTITLE8=Jackass Blues
TTITLE9=Oh Sister Ain't That Hot!
TTITLE10=Bleeding Hearted Blues
TTITLE11=Too Bad
TTITLE12=Wild Man Blues
EXTD=
EXTT0=
EXTT1=
EXTT2=
EXTT3=
EXTT4=
EXTT5=
EXTT6=
EXTT7=
EXTT8=
EXTT9=
EXTT10=
EXTT11=
EXTT12=
PLAYORDER=
